<?xml version="1.0" standalone="no"?>
<!DOCTYPE svg PUBLIC "-//W3C//DTD SVG 20010904//EN"
 "http://www.w3.org/TR/2001/REC-SVG-20010904/DTD/svg10.dtd">
<svg version="1.0" xmlns="http://www.w3.org/2000/svg"
 width="543.000000pt" height="543.000000pt" viewBox="0 0 543.000000 543.000000"
 preserveAspectRatio="xMidYMid meet">

<g transform="translate(0.000000,543.000000) scale(0.100000,-0.100000)"
fill="#000000" stroke="none">
<path d="M1127 5415 c-482 -67 -895 -404 -1047 -856 -12 -35 -32 -104 -43
-154 l-22 -90 0 -1557 c0 -857 3 -1558 8 -1558 4 0 7 -18 7 -40 0 -84 74 -363
105 -393 6 -7 12 -16 12 -20 2 -20 26 -67 35 -67 5 0 6 -5 3 -10 -3 -6 1 -13
9 -16 9 -3 14 -9 11 -14 -6 -10 22 -46 30 -38 4 4 0 24 -9 45 -30 67 -34 77
-47 118 -6 22 -17 46 -23 54 -18 23 -15 701 4 771 8 30 14 57 15 60 2 26 108
253 130 279 12 14 14 21 5 16 -8 -5 5 14 28 43 24 29 41 52 37 52 -3 0 4 11
17 24 13 13 30 34 38 47 28 43 240 249 240 232 0 -3 8 4 19 15 10 12 21 19 25
15 3 -3 6 -1 6 5 0 9 63 55 80 58 40 7 40 8 42 243 l3 226 5 -305 c4 -230 6
-138 8 375 2 731 6 797 55 940 89 260 289 476 536 580 176 74 96 70 1266 70
999 0 1053 -1 1120 -19 290 -78 515 -264 640 -528 24 -52 55 -134 67 -184 l23
-89 0 -1030 0 -1030 -22 -84 c-96 -360 -357 -619 -715 -713 -77 -20 -115 -22
-568 -28 -461 -6 -471 -6 -210 -10 l275 -5 -201 -2 -202 -3 -16 -35 c-10 -20
-14 -40 -11 -45 3 -6 1 -10 -4 -10 -6 0 -10 -3 -9 -7 1 -5 -4 -24 -11 -43 -8
-19 -15 -37 -15 -40 -1 -3 -15 -32 -31 -65 -16 -33 -29 -63 -29 -67 -1 -4 -8
-15 -16 -25 -9 -10 -22 -33 -29 -50 -7 -18 -17 -33 -21 -33 -4 0 -11 -11 -14
-25 -4 -14 -11 -23 -16 -20 -5 3 -12 -5 -16 -19 -3 -14 -15 -28 -25 -31 -10
-4 -19 -11 -19 -16 0 -19 -131 -159 -168 -178 -12 -7 -20 -16 -17 -22 4 -5 -1
-9 -9 -9 -9 0 -16 -4 -16 -9 0 -5 -11 -12 -24 -15 -13 -3 -26 -15 -29 -27 -3
-12 -10 -19 -14 -16 -5 3 -15 2 -23 -3 -8 -5 93 -9 245 -9 143 -1 301 -5 350
-9 50 -4 374 -7 720 -7 687 0 698 1 881 61 400 130 724 461 838 856 57 198 56
164 56 1793 0 1301 -2 1511 -16 1602 -73 497 -407 893 -880 1048 -190 62 -93
59 -1774 61 -1241 2 -1554 0 -1633 -11z"/>
<path d="M1690 4234 c-228 -48 -426 -241 -484 -470 -14 -53 -16 -147 -14 -680
2 -447 4 -547 8 -359 l6 260 2 -190 2 -190 212 3 c117 1 247 3 290 5 l76 2 7
-49 c3 -26 8 -46 10 -44 3 2 0 46 -7 97 -35 299 100 622 340 812 117 94 217
143 372 185 89 25 317 25 414 1 341 -85 600 -341 692 -683 26 -98 26 -340 0
-438 -29 -107 -71 -201 -130 -290 -61 -91 -197 -228 -269 -271 -26 -15 -44
-32 -40 -37 3 -6 1 -8 -4 -5 -6 4 -41 -7 -78 -24 -90 -41 -199 -68 -315 -79
l-95 -9 110 3 c61 1 98 1 83 -1 -16 -3 -28 -11 -28 -19 0 -8 4 -14 8 -14 4 0
15 -28 25 -62 10 -35 23 -72 29 -83 8 -13 14 -93 16 -217 l4 -197 -43 -4 c-24
-2 140 -4 364 -5 336 -2 421 1 484 14 244 50 432 230 494 472 18 72 19 119 19
1047 0 934 -1 975 -20 1049 -46 180 -169 334 -331 414 -150 74 -108 72 -1184
71 -782 0 -972 -3 -1025 -15z m2145 -301 c144 -72 159 -275 26 -368 -39 -27
-50 -30 -120 -30 -66 0 -83 4 -114 25 -21 14 -50 43 -65 64 -24 35 -27 49 -27
117 0 70 3 81 30 120 63 90 175 119 270 72z m-2038 -1045 c-3 -8 -6 -5 -6 6
-1 11 2 17 5 13 3 -3 4 -12 1 -19z m-10 -65 c-3 -10 -5 -2 -5 17 0 19 2 27 5
18 2 -10 2 -26 0 -35z m-10 -145 c-2 -24 -4 -7 -4 37 0 44 2 63 4 43 2 -21 2
-57 0 -80z m1363 -803 c0 -6 -56 -35 -67 -35 -4 1 8 9 27 20 39 22 40 22 40
15z m-90 -45 c-8 -5 -19 -10 -25 -10 -5 0 -3 5 5 10 8 5 20 10 25 10 6 0 3 -5
-5 -10z m-73 -26 c-3 -3 -12 -4 -19 -1 -8 3 -5 6 6 6 11 1 17 -2 13 -5z m-40
-10 c-3 -3 -12 -4 -19 -1 -8 3 -5 6 6 6 11 1 17 -2 13 -5z"/>
<path d="M2560 3334 c-214 -56 -398 -239 -456 -454 -21 -80 -24 -234 -5 -310
14 -56 65 -180 75 -180 3 0 -6 24 -19 53 -13 28 -26 66 -30 82 -5 26 -4 27 4
7 6 -12 23 -28 38 -34 15 -7 39 -20 52 -30 13 -10 27 -15 32 -12 5 3 9 1 9 -4
0 -5 12 -15 27 -23 31 -16 55 -33 88 -66 13 -12 26 -19 29 -16 3 4 6 1 6 -5 0
-7 7 -12 15 -12 8 0 15 -4 15 -10 0 -5 7 -10 15 -10 8 0 15 -6 15 -14 0 -8 9
-18 20 -21 11 -3 20 -11 20 -16 0 -6 5 -7 10 -4 6 3 10 0 10 -8 0 -7 12 -25
28 -39 15 -13 41 -42 59 -64 31 -37 36 -39 105 -46 58 -5 53 -6 -27 -2 -55 2
-113 6 -130 9 -16 2 -7 -2 20 -9 75 -21 199 -19 289 4 214 54 384 214 452 423
22 69 27 100 27 192 -1 186 -55 317 -188 450 -87 88 -177 140 -291 169 -77 20
-239 20 -314 0z m-453 -556 c-2 -13 -4 -5 -4 17 -1 22 1 32 4 23 2 -10 2 -28
0 -40z m6 -168 c4 -36 3 -46 -3 -30 -8 25 -13 97 -6 89 2 -2 6 -29 9 -59z
m847 -470 c-8 -5 -19 -10 -25 -10 -5 0 -3 5 5 10 8 5 20 10 25 10 6 0 3 -5 -5
-10z m-73 -26 c-3 -3 -12 -4 -19 -1 -8 3 -5 6 6 6 11 1 17 -2 13 -5z m-44 -11
c-7 -2 -21 -2 -30 0 -10 3 -4 5 12 5 17 0 24 -2 18 -5z"/>
<path d="M2250 2285 c13 -14 26 -25 28 -25 3 0 -5 11 -18 25 -13 14 -26 25
-28 25 -3 0 5 -11 18 -25z"/>
<path d="M2470 2130 c8 -5 20 -10 25 -10 6 0 3 5 -5 10 -8 5 -19 10 -25 10 -5
0 -3 -5 5 -10z"/>
<path d="M276 527 c3 -10 9 -15 12 -12 3 3 0 11 -7 18 -10 9 -11 8 -5 -6z"/>
</g>
</svg>
